<svg xmlns="http://www.w3.org/2000/svg" viewBox="0 0 100 100">
  <rect width="100" height="100" rx="18" fill="#000"/>
  <g transform="translate(50,50)">
    <g transform="translate(0,-12)">
      <path d="M-18,-8 L0,-16 L18,-8 L18,2 L0,10 L-18,2 Z" fill="#444" stroke="#666" stroke-width="0.5"/>
      <path d="M0,-16 L0,10 L18,-8 L18,-18 Z" fill="#2a2a2a"/>
      <path d="M-18,-8 L0,-16 L0,10 L-18,2 Z" fill="#333"/>
    </g>
    <g transform="translate(0,2)">
      <path d="M-14,-6 L0,-12 L14,-6 L14,2 L0,8 L-14,2 Z" fill="#c8912a" stroke="#e0b050" stroke-width="0.5"/>
      <path d="M0,-12 L0,8 L14,-6 L14,-14 Z" fill="#a07020"/>
      <path d="M-14,-6 L0,-12 L0,8 L-14,2 Z" fill="#b08025"/>
    </g>
    <g transform="translate(0,14)">
      <path d="M-10,-5 L0,-9 L10,-5 L10,1 L0,5 L-10,1 Z" fill="#aaa" stroke="#ccc" stroke-width="0.5"/>
      <path d="M0,-9 L0,5 L10,-5 L10,-11 Z" fill="#888"/>
      <path d="M-10,-5 L0,-9 L0,5 L-10,1 Z" fill="#999"/>
    </g>
  </g>
</svg>
